<mxfile host="app.diagrams.net" agent="Mozilla/5.0 (Windows NT 10.0; Win64; x64) AppleWebKit/537.36 (KHTML, like Gecko) Chrome/134.0.0.0 Safari/537.36" version="26.1.2">
  <diagram name="Strona-1" id="AIzA4VRX0Vp4MmoR9HfS">
    <mxGraphModel dx="2062" dy="624" grid="1" gridSize="10" guides="1" tooltips="1" connect="1" arrows="1" fold="1" page="1" pageScale="1" pageWidth="827" pageHeight="1169" math="0" shadow="0">
      <root>
        <mxCell id="0" />
        <mxCell id="1" parent="0" />
        <mxCell id="8_1eiTo3xbIW0OLFBePM-7" style="edgeStyle=orthogonalEdgeStyle;rounded=0;orthogonalLoop=1;jettySize=auto;html=1;" edge="1" parent="1" source="8_1eiTo3xbIW0OLFBePM-1" target="8_1eiTo3xbIW0OLFBePM-3">
          <mxGeometry relative="1" as="geometry" />
        </mxCell>
        <mxCell id="8_1eiTo3xbIW0OLFBePM-22" style="edgeStyle=orthogonalEdgeStyle;rounded=0;orthogonalLoop=1;jettySize=auto;html=1;entryX=0;entryY=0.75;entryDx=0;entryDy=0;" edge="1" parent="1" source="8_1eiTo3xbIW0OLFBePM-1" target="8_1eiTo3xbIW0OLFBePM-20">
          <mxGeometry relative="1" as="geometry" />
        </mxCell>
        <mxCell id="8_1eiTo3xbIW0OLFBePM-1" value="Klient" style="shape=umlActor;verticalLabelPosition=bottom;verticalAlign=top;html=1;outlineConnect=0;" vertex="1" parent="1">
          <mxGeometry y="240" width="30" height="60" as="geometry" />
        </mxCell>
        <mxCell id="8_1eiTo3xbIW0OLFBePM-12" style="edgeStyle=orthogonalEdgeStyle;rounded=0;orthogonalLoop=1;jettySize=auto;html=1;entryX=0;entryY=0.5;entryDx=0;entryDy=0;" edge="1" parent="1" source="8_1eiTo3xbIW0OLFBePM-3" target="8_1eiTo3xbIW0OLFBePM-11">
          <mxGeometry relative="1" as="geometry" />
        </mxCell>
        <mxCell id="8_1eiTo3xbIW0OLFBePM-23" style="edgeStyle=orthogonalEdgeStyle;rounded=0;orthogonalLoop=1;jettySize=auto;html=1;entryX=0;entryY=0.25;entryDx=0;entryDy=0;" edge="1" parent="1" source="8_1eiTo3xbIW0OLFBePM-3" target="8_1eiTo3xbIW0OLFBePM-20">
          <mxGeometry relative="1" as="geometry" />
        </mxCell>
        <mxCell id="8_1eiTo3xbIW0OLFBePM-3" value="Obsługa klienta" style="shape=umlActor;verticalLabelPosition=bottom;verticalAlign=top;html=1;outlineConnect=0;" vertex="1" parent="1">
          <mxGeometry y="100" width="30" height="60" as="geometry" />
        </mxCell>
        <mxCell id="8_1eiTo3xbIW0OLFBePM-17" style="edgeStyle=orthogonalEdgeStyle;rounded=0;orthogonalLoop=1;jettySize=auto;html=1;" edge="1" parent="1" source="8_1eiTo3xbIW0OLFBePM-9">
          <mxGeometry relative="1" as="geometry">
            <mxPoint x="340" y="120" as="targetPoint" />
          </mxGeometry>
        </mxCell>
        <mxCell id="8_1eiTo3xbIW0OLFBePM-9" value="Tester destynacji" style="shape=umlActor;verticalLabelPosition=bottom;verticalAlign=top;html=1;outlineConnect=0;" vertex="1" parent="1">
          <mxGeometry x="740" y="190" width="30" height="60" as="geometry" />
        </mxCell>
        <mxCell id="8_1eiTo3xbIW0OLFBePM-16" style="edgeStyle=orthogonalEdgeStyle;rounded=0;orthogonalLoop=1;jettySize=auto;html=1;" edge="1" parent="1" source="8_1eiTo3xbIW0OLFBePM-11" target="8_1eiTo3xbIW0OLFBePM-15">
          <mxGeometry relative="1" as="geometry" />
        </mxCell>
        <mxCell id="8_1eiTo3xbIW0OLFBePM-11" value="Kontakt z hotelami zdalnie" style="ellipse;whiteSpace=wrap;html=1;" vertex="1" parent="1">
          <mxGeometry x="200" y="80" width="120" height="80" as="geometry" />
        </mxCell>
        <mxCell id="8_1eiTo3xbIW0OLFBePM-19" style="edgeStyle=orthogonalEdgeStyle;rounded=0;orthogonalLoop=1;jettySize=auto;html=1;" edge="1" parent="1" source="8_1eiTo3xbIW0OLFBePM-15" target="8_1eiTo3xbIW0OLFBePM-18">
          <mxGeometry relative="1" as="geometry" />
        </mxCell>
        <mxCell id="8_1eiTo3xbIW0OLFBePM-15" value="Test oferty" style="ellipse;whiteSpace=wrap;html=1;" vertex="1" parent="1">
          <mxGeometry x="390" y="80" width="120" height="80" as="geometry" />
        </mxCell>
        <mxCell id="8_1eiTo3xbIW0OLFBePM-21" style="edgeStyle=orthogonalEdgeStyle;rounded=0;orthogonalLoop=1;jettySize=auto;html=1;entryX=1;entryY=0.25;entryDx=0;entryDy=0;" edge="1" parent="1" source="8_1eiTo3xbIW0OLFBePM-18" target="8_1eiTo3xbIW0OLFBePM-20">
          <mxGeometry relative="1" as="geometry" />
        </mxCell>
        <mxCell id="8_1eiTo3xbIW0OLFBePM-18" value="Dodanie oferty do internetowej bazy danych" style="ellipse;whiteSpace=wrap;html=1;" vertex="1" parent="1">
          <mxGeometry x="580" y="80" width="120" height="80" as="geometry" />
        </mxCell>
        <mxCell id="8_1eiTo3xbIW0OLFBePM-32" style="edgeStyle=orthogonalEdgeStyle;rounded=0;orthogonalLoop=1;jettySize=auto;html=1;entryX=0.5;entryY=0;entryDx=0;entryDy=0;" edge="1" parent="1" source="8_1eiTo3xbIW0OLFBePM-20" target="8_1eiTo3xbIW0OLFBePM-31">
          <mxGeometry relative="1" as="geometry" />
        </mxCell>
        <mxCell id="8_1eiTo3xbIW0OLFBePM-20" value="Strona internetowa z ofertami" style="rounded=0;whiteSpace=wrap;html=1;" vertex="1" parent="1">
          <mxGeometry x="270" y="210" width="200" height="210" as="geometry" />
        </mxCell>
        <mxCell id="8_1eiTo3xbIW0OLFBePM-28" style="edgeStyle=orthogonalEdgeStyle;rounded=0;orthogonalLoop=1;jettySize=auto;html=1;entryX=1;entryY=0.75;entryDx=0;entryDy=0;" edge="1" parent="1" target="8_1eiTo3xbIW0OLFBePM-20">
          <mxGeometry relative="1" as="geometry">
            <mxPoint x="680" y="380" as="sourcePoint" />
          </mxGeometry>
        </mxCell>
        <mxCell id="8_1eiTo3xbIW0OLFBePM-34" style="edgeStyle=orthogonalEdgeStyle;rounded=0;orthogonalLoop=1;jettySize=auto;html=1;" edge="1" parent="1" source="8_1eiTo3xbIW0OLFBePM-31" target="8_1eiTo3xbIW0OLFBePM-1">
          <mxGeometry relative="1" as="geometry" />
        </mxCell>
        <mxCell id="8_1eiTo3xbIW0OLFBePM-36" style="edgeStyle=orthogonalEdgeStyle;rounded=0;orthogonalLoop=1;jettySize=auto;html=1;entryX=0.5;entryY=0;entryDx=0;entryDy=0;" edge="1" parent="1" source="8_1eiTo3xbIW0OLFBePM-31" target="8_1eiTo3xbIW0OLFBePM-35">
          <mxGeometry relative="1" as="geometry" />
        </mxCell>
        <mxCell id="8_1eiTo3xbIW0OLFBePM-31" value="Finalizacja zakupu" style="ellipse;whiteSpace=wrap;html=1;" vertex="1" parent="1">
          <mxGeometry x="310" y="460" width="120" height="80" as="geometry" />
        </mxCell>
        <mxCell id="8_1eiTo3xbIW0OLFBePM-35" value="Rezygnacja z oferty" style="ellipse;whiteSpace=wrap;html=1;" vertex="1" parent="1">
          <mxGeometry x="310" y="600" width="120" height="80" as="geometry" />
        </mxCell>
        <mxCell id="8_1eiTo3xbIW0OLFBePM-39" value="" style="endArrow=none;html=1;rounded=0;entryX=0;entryY=0.5;entryDx=0;entryDy=0;" edge="1" parent="1" target="8_1eiTo3xbIW0OLFBePM-35">
          <mxGeometry width="50" height="50" relative="1" as="geometry">
            <mxPoint x="-90" y="640" as="sourcePoint" />
            <mxPoint x="200" y="585" as="targetPoint" />
          </mxGeometry>
        </mxCell>
        <mxCell id="8_1eiTo3xbIW0OLFBePM-42" value="" style="endArrow=none;html=1;rounded=0;" edge="1" parent="1">
          <mxGeometry width="50" height="50" relative="1" as="geometry">
            <mxPoint x="-90" y="640" as="sourcePoint" />
            <mxPoint x="-90" y="290" as="targetPoint" />
          </mxGeometry>
        </mxCell>
        <mxCell id="8_1eiTo3xbIW0OLFBePM-43" value="" style="endArrow=classic;html=1;rounded=0;entryX=0;entryY=1;entryDx=0;entryDy=0;entryPerimeter=0;" edge="1" parent="1" target="8_1eiTo3xbIW0OLFBePM-1">
          <mxGeometry width="50" height="50" relative="1" as="geometry">
            <mxPoint x="-90" y="290" as="sourcePoint" />
            <mxPoint x="200" y="240" as="targetPoint" />
          </mxGeometry>
        </mxCell>
        <mxCell id="8_1eiTo3xbIW0OLFBePM-44" value="&lt;span style=&quot;text-wrap-mode: wrap;&quot;&gt;Zaprzyjaźniona firma transportowa&lt;/span&gt;" style="shape=umlActor;verticalLabelPosition=bottom;verticalAlign=top;html=1;outlineConnect=0;" vertex="1" parent="1">
          <mxGeometry x="680" y="350" width="30" height="60" as="geometry" />
        </mxCell>
      </root>
    </mxGraphModel>
  </diagram>
</mxfile>
